<?xml version="1.0" encoding="utf-8"?>
<!-- Generator: Adobe Illustrator 26.5.0, SVG Export Plug-In . SVG Version: 6.00 Build 0)  -->
<svg version="1.1" id="Layer_1" xmlns="http://www.w3.org/2000/svg" xmlns:xlink="http://www.w3.org/1999/xlink" x="0px" y="0px"
	 viewBox="0 0 2160 1800" style="enable-background:new 0 0 2160 1800;" xml:space="preserve">
<style type="text/css">
	.st0{fill:#FFFFFF;stroke:#FFFFFF;stroke-miterlimit:10;}
	.st1{stroke:#000000;stroke-miterlimit:10;}
</style>
<path class="st0" d="M252.94,766.54c-22.98-15.8-121.12-90.96-109.78-215.17c0,0,23.2-179.44,206.57-195.18
	c0,0,121.62-4.09,157.82,4.55c0,0,57.29,45.13,76.82,70.09c0,0-44.17-90.9,10.88-112.94L69.86,334.33c0,0,98.21,13.5,69.43,42.29
	c0,0-86.02,77.26-106.9,166.32c0,0-15.5,71.93,9.22,132.21c0,0,38.33,114.15,172.97,155.55c0,0,24.75,7.89,190.54,21.34
	c64.94,5.27,190.12-12.8,190.12-12.8s-222.12-9.82-333.28-67.75C258.92,769.89,255.78,768.49,252.94,766.54z"/>
<path class="st0" d="M676.26,678.93l-2.27-45.66l3.74-274.59c-6.59-29.74-47.18-40.79-47.18-40.79h348.18
	c40.17,0,78.89,13.02,99.16,26.02s72.15,58.75,72.15,58.75l-14.53-0.86c-0.72-0.31-7.88-0.86-8.67-0.84
	c-3.88,0.13-7.68,1.14-11.13,2.94l-113.76,59.56c123.87,118.15,167.38,211.68,167.38,211.68c75.52,140.35-9.85,336.86-9.85,336.86
	c24.71-162.91-43.6-268.64-43.6-268.64c-2.04-6.08-33.6-61.98-76.66-115.34c-43.06-53.35-126.94-131.51-126.94-131.51l-49.58-43.6
	c0,0,151.08-40.07,155.42-43.6c4.34-3.54,8.47-1.27-7.03-25.32c-15.5-24.05-84.66-25.32-84.66-25.32H769.15l-7.78,183.21
	c0,0-6.13,108.03-7.36,129.42c-4.9,85.13-6.4,107.74,3.41,296.79l2.99,43.9C760.41,1012.01,675.11,708.89,676.26,678.93z"/>
<path class="st0" d="M1376.48,317.89v16.61v345.86c0,73.43-18.33,145.86-53.77,211.1c-35.38,65.13-47.78,120.54-47.78,120.54
	l0.36-646.7c0.01-17.04-29.19-30.02-38.19-29.28l-13.05,25.24v-43.38h152.43V317.89z"/>
<path class="st0" d="M392.54,1012.01c0,0,98.2-89.87,135.45-154.81c0,0,30.77-50.83,34.59-93.22c0,0,2.91-50.23-1.79-87.34
	c0,0-11.67-64.43,34.45-85.31l-349.19-14.16c0,0,102.72-1.55,197.26,83.63c0.79,0.71,1.53,1.47,2.22,2.27
	c7.35,8.57,47.31,58.35,38.93,117.76c0,0-11.27,71.8-32.65,111.74L392.54,1012.01z"/>
<path class="st0" d="M1891.96,562.03v206.95c0,0,81.2,115.95,98.45,243.03V317.89c0,0-117.41,164-239.07,237.41l-24.93,51.56
	l-20.54-52.49c0,0-109.79-34.29-243.46-236.49v693.38c0,0,47.06-195.29,100.55-243.03V563.87l95.04,78.89
	c17.4,14.44,29.91,33.91,36.35,58.86l32.05,77.02l30.55-80.37c5.48-21.63,17.8-40.92,35.11-55L1891.96,562.03z"/>
<path class="st1" d="M952.01,2765.71"/>
</svg>
